<?xml version="1.0" encoding="utf-8"?>
<!-- Generator: Adobe Illustrator 24.1.2, SVG Export Plug-In . SVG Version: 6.00 Build 0)  -->
<svg version="1.1" xmlns="http://www.w3.org/2000/svg" xmlns:xlink="http://www.w3.org/1999/xlink" x="0px" y="0px"
	 viewBox="0 0 900.7 370.6" style="enable-background:new 0 0 900.7 370.6;" xml:space="preserve">
<style type="text/css">
	.st0{fill:#F9F9F9;}
</style>
<g id="Laag_2">
</g>
<g id="Laag_1_xA0_Afbeelding_1_">
	<g>
		<path class="st0" d="M652.4,96c0,0.1,0,0.1,0,0.2c-0.4,0.5-1,0.4-1.6,0.4c-4.4,0-8.8,0-13.2,0c-0.5,0-1.1,0.1-1.6-0.4
			c0-0.1,0-0.1,0-0.2C641.5,96,646.9,96,652.4,96z"/>
		<path class="st0" d="M726.7,96c0,0.1,0,0.1,0,0.2c-0.4,0.5-1,0.4-1.6,0.4c-4.3,0-8.7,0-13,0c-0.5,0-1.1,0.1-1.6-0.4
			c0-0.1,0-0.1,0-0.2C716,96,721.4,96,726.7,96z"/>
		<path class="st0" d="M804.7,160.3c-0.1,0-0.1,0-0.2,0c-0.3-0.3-0.4-0.7-0.4-1.1c0-2.5,0-5.1,0-7.6c0-0.3,0.1-0.6,0.2-0.8
			c0.1-0.2,0.2-0.2,0.4-0.1C804.7,153.9,804.7,157.1,804.7,160.3z"/>
		<path class="st0" d="M587.4,274.3c0,0.1,0,0.1,0,0.2c-0.8,0-1.6,0-2.4,0c-0.1-0.2,0-0.3,0.1-0.4
			C585.8,273.9,586.6,273.7,587.4,274.3z"/>
		<path class="st0" d="M584.9,274.4c0,0.1,0,0.1,0,0.2c-0.6,0-1.1,0-1.7,0c0-0.1,0-0.1,0-0.2C583.8,273.8,584.4,273.8,584.9,274.4z"
			/>
		<path class="st0" d="M804.7,150.7L804.7,150.7l-0.2,0c-0.5-0.5-0.4-0.9,0-1.4c0.1,0,0.1,0,0.2,0
			C804.7,149.8,804.7,150.2,804.7,150.7z"/>
		<path class="st0" d="M169.7,157.7c0-1.5,0-3.1-0.2-4.7c-0.8-8.4-4-15.8-9.8-21.8c-8.8-9.2-19.7-13-32.4-11.1
			c-19.9,2.9-33.7,21.9-30.6,41.8c2.7,17.3,16.9,30.2,34.4,31c6.2,0.3,12.4,0,18.6,0v0c6.2,0,12.5,0,18.7,0c1.1,0,1.3-0.3,1.3-1.4
			C169.7,180.3,169.7,169,169.7,157.7z M145.3,167.6c0,0.7-0.2,1-0.9,1c-4,0-7.9,0.1-11.9,0c-6.8-0.2-12-5.9-11.8-12.8
			c0.2-6.7,6-12.1,12.7-11.8c6.7,0.3,11.7,5.4,11.9,12.1c0,1.8,0,3.5,0,5.3C145.3,163.4,145.2,165.5,145.3,167.6z"/>
		<path class="st0" d="M726.7,96.2h-16.1c-1.5,0.6-1.9,1.2-1.9,2.8v11.3c0,3,0,6.1,0,9.1c0,0.8-0.2,1-1,0.9
			c-0.8-0.1-1.7-0.2-2.5-0.3c-5.6-0.7-11.2-0.7-16.8,0.6c-5.3,1.3-10.1,3.6-13.8,7.8c-4.8,5.3-6.8,11.7-7.4,18.6
			c-0.4,4.4-0.2,8.8-0.2,13.2c0,3.6,0.2,7.1,1,10.6c1.2,5.7,3.5,10.7,7.8,14.8c5.8,5.5,12.9,7.4,20.6,7.7c6.2,0.3,12.3-0.3,18.4-1.2
			c3.9-0.6,7.8-1.3,11.6-2.3c2.1-0.6,2.6-1.3,2.6-3.4v-87C728.9,97.5,728.4,96.8,726.7,96.2z M708.7,156.4c0,6.1,0,12.1,0,18.2
			c0,0.9-0.1,1.3-1.2,1.4c-3.7,0.4-7.4,0.9-11.1,0.5c-5.1-0.6-7.6-3.8-8.6-8.4c-0.5-2.3-0.7-4.7-0.7-7.1c0-4.3-0.2-8.6,0.2-12.9
			c0.2-2.2,0.6-4.4,1.6-6.5c1.8-3.7,4.9-5.2,8.8-5.4c3.3-0.1,6.6,0.3,9.9,0.5c0.8,0,1.1,0.4,1.1,1.3
			C708.7,144.1,708.7,150.2,708.7,156.4z"/>
		<path class="st0" d="M477.4,141.4c-2.4-9.1-7.5-16-16.4-19.6c-6.4-2.6-13-2.9-19.8-1.8c-12.3,2-20.2,9-23.6,21
			c-0.9,3.4-1.4,6.8-1.4,10.3c0.1,6.1-0.5,12.2,0.7,18.2c1,5.3,3,10.2,6.7,14.2c5.9,6.5,13.5,9,22,9.5c4.3,0.2,8.5,0,12.8-0.4
			c5.1-0.4,10.1-1.3,15-2.7c1.8-0.5,2.2-1.1,2.2-3c0-2.6-0.1-5.1,0-7.7c0.1-4.1-0.4-4.2-4.4-3.9c-7.9,0.6-15.8,1-23.7,0.9
			c-5.2-0.1-9.2-3-10.7-7.8c-0.5-1.6-0.7-3.3-0.8-4.9c-0.1-0.9,0.2-1.2,1.2-1.2c6.4,0,12.9,0,19.3,0h19c2.3,0,3.1-0.8,3.1-3.1
			c0-2.6,0-5.3,0-7.9C478.7,148.1,478.3,144.7,477.4,141.4z M458,150.2c-3.5,0-6.9,0-10.4,0c-3.3,0-6.7,0-10.1,0
			c-1.2,0-1.4-0.4-1.3-1.4c0.2-4,1-7.7,4.1-10.5c6.3-5.7,16.5-2.2,18.2,6.2c0.3,1.6,0.5,3.1,0.5,4.8
			C459.1,150,458.8,150.2,458,150.2z"/>
		<path class="st0" d="M619.5,141.5c-2.3-8.9-7.3-15.8-15.9-19.5c-6.5-2.8-13.4-3.1-20.3-2c-12.1,1.8-20.8,9.8-23.8,21.8
			c-1.2,4.8-1.2,9.7-1.2,14.6c0,4.3-0.1,8.7,0.7,13c1,5.3,3,10.2,6.7,14.2c5.9,6.5,13.6,9.1,22.1,9.5c5.9,0.3,11.7-0.1,17.5-1
			c3.5-0.5,6.9-1.2,10.3-2.1c1.6-0.4,2.2-1.1,2.2-2.6c0-3.4,0-6.8,0-10.2c0-1.2-0.6-1.8-1.8-1.8c-0.9,0-1.8,0-2.6,0
			c-7.9,0.7-15.9,1.1-23.8,0.9c-2.8,0-5.4-0.9-7.5-2.9c-2.8-2.6-3.6-6.1-3.9-9.7c-0.1-1,0.2-1.3,1.2-1.3c6.4,0,12.8,0,19.2,0h19.2
			c2,0,2.9-0.8,2.9-2.9c0-1.5,0-3,0-4.5C620.8,150.5,620.6,145.9,619.5,141.5z M600,150.2c-3.5,0-7,0-10.4,0c-3.4,0-6.9,0-10.3,0
			c-0.9,0-1.2-0.3-1.1-1.2c0.2-4,0.9-7.8,4-10.6c6.3-5.8,16.5-2.4,18.3,6.1c0.3,1.6,0.5,3.1,0.5,4.7
			C601.1,150,600.8,150.2,600,150.2z"/>
		<path class="st0" d="M804.5,149.3c-0.2-3-0.6-5.9-1.5-8.8c-2.5-8.3-7.2-14.8-15.4-18.3c-6.6-2.9-13.4-3.2-20.4-2.2
			c-12.7,1.9-21.7,10.4-24.1,23.1c-1.6,8.6-1.6,17.4-0.2,26c1.9,11.7,8.6,19.4,20,22.7c5.4,1.6,10.8,1.5,16.4,1.3
			c6.6-0.3,13.1-1.2,19.5-2.8c2.4-0.6,2.9-1.2,2.9-3.6c0-3,0-6,0-9c0-1.7-0.6-2.3-2.2-2.3c-1.8,0-3.6,0.1-5.4,0.3
			c-6.9,0.6-13.7,0.8-20.6,0.7c-5.4-0.1-9.3-3.2-10.8-8.4c-0.4-1.3-0.5-2.7-0.6-4c-0.2-1.5-0.1-1.5,1.4-1.5h38.1
			c1.9,0,2.5-0.5,2.9-2.2c0-3.2,0-6.4,0-9.6C804.5,150.2,804.5,149.8,804.5,149.3z M783.9,150.2c-3.5,0-7,0-10.4,0
			c-3.4,0-6.9,0-10.3,0c-0.5,0-1.1,0.2-1.1-0.7c0.1-3.8,0.7-7.5,3.4-10.5c3.2-3.4,7.2-4,11.6-3c4.2,1,6.3,4.2,7.4,8.2
			c0.5,1.7,0.4,3.5,0.6,5.2C785,150.3,784.3,150.2,783.9,150.2z"/>
		<path class="st0" d="M300.2,138c-1.4-6.9-4.9-12.1-11.3-15.2c-4.3-2.1-8.8-2.9-13.5-3.2c-5.3-0.3-10.5,0-15.8,0.7
			c-3.1,0.4-6.2,1-9.3,1.7c-2,0.4-2.7,1.3-2.7,3.3c0,3.2,0,6.3,0,9.5c0,1.7,0.7,2.4,2.3,2.3c2.2-0.1,4.3-0.2,6.4-0.4
			c5.7-0.4,11.3-0.6,17-0.4c4.3,0.2,6.7,2.5,7.1,6.5c0.2,1.9,0.1,3.7,0.2,5.6c0,0.9-0.3,1.1-1.1,1c-2.4,0-4.9,0-7.3,0
			c-5.6,0.1-11.2,0.6-16.6,2.4c-6.3,2.2-10.7,6.3-12,13.1c-1,4.8-0.9,9.7,0.4,14.5c1.8,6.4,5.8,10.6,12.2,12.5
			c5.6,1.7,11.2,1.6,16.7,0c3.2-0.9,6-2.5,8.9-4.5v1.5c0,2.2,0.8,2.9,3,2.9h12.6c2.6,0,3.3-0.6,3.3-3.2c0-14.7,0-29.3,0-44
			C300.8,142.5,300.6,140.2,300.2,138z M281,174.4c0,0.5,0,0.8-0.5,1.1c-4.1,2-8.4,3-13,2.3c-2.9-0.4-4.2-1.7-4.6-4.6
			c-0.3-2-0.2-4,0.2-6c0.7-3.3,3-4.8,6.1-5.4c3.7-0.7,7.4-0.4,11.1-0.4c0.6,0,0.7,0.4,0.7,0.8c0,2,0,4.1,0,6.1
			C281,170.4,281,172.4,281,174.4z"/>
		<path class="st0" d="M494.9,120.5c2.5,0,5,0,7.4,0c2.1,0,3,0.6,3.4,2.7c1.1,4.9,2.2,9.9,3.3,14.8c2.3,10.5,4.6,20.9,6.8,31.4
			c0.3,1.2,0.5,2.5,0.9,3.7c0.2,0.8,0.6,1.7,1.6,1.7c1.1,0,1.6-0.8,1.8-1.7c0.7-3.1,1.4-6.3,2.1-9.4c3-13.4,5.9-26.9,8.9-40.3
			c0.5-2.1,1.3-2.8,3.5-2.8c5,0,10,0.1,15,0c2.1,0,3.1,1.2,2.5,3.3c-3.7,13.1-7.3,26.2-10.9,39.3c-2.1,7.4-4,14.8-6.2,22.2
			c-0.2,0.5-0.4,1.1-0.5,1.6c-1.2,3.2-3.3,5.2-6.7,5.7c-6.1,1-12.2,1-18.2,0c-3.7-0.6-5.9-2.8-7.1-6.3c-1.8-5-3-10.1-4.4-15.2
			c-4.4-15.9-8.8-31.8-13.1-47.7c-0.5-1.7,0.3-2.8,2.1-2.8C489.6,120.5,492.3,120.5,494.9,120.5z"/>
		<path class="st0" d="M373.5,156.2c0-6.5,0-13,0-19.4c0-1-0.2-1.4-1.3-1.5c-3-0.4-5.9-0.9-8.8-1.4c-1.7-0.3-2.6-1.4-2.6-3.1
			c0-2.4,0-4.9,0-7.3c0-2,1-3,3-3c2.9,0,5.8,0,8.6,0c0.8,0,1-0.3,1-1c0-2.9,0-5.8,0-8.6c0-2,0.5-2.7,2.4-3.1
			c4.9-0.9,9.9-1.8,14.8-2.6c2.2-0.4,3,0.4,3,2.7c0,3.8,0,7.7,0,11.5c0,0.9,0.3,1.1,1.1,1.1c2.9-0.1,5.8,0,8.8,0
			c2,0,2.9,0.9,2.9,2.8c0,3.1,0,6.2,0,9.4c0,2-1,2.9-3,2.9c-2.9,0-5.8,0-8.8,0c-0.8,0-1.1,0.2-1.1,1c0,12.2,0,24.5,0,36.7
			c0,0,0,0.1,0,0.1c0.1,3.7,0.8,4.4,4.5,4.4c2,0,3.9,0,5.9,0c1.9,0,2.6,0.8,2.6,2.7c0,2.9,0,5.8,0,8.8c0,1.7-0.8,2.6-2.4,2.9
			c-5.6,1-11.1,1.3-16.8,0.6c-7.7-1.1-12.2-5.4-13.5-13.2c-0.5-3.4-0.6-6.8-0.6-10.3C373.5,165,373.5,160.6,373.5,156.2z"/>
		<path class="st0" d="M636,96.2c5.4,0,10.9,0,16.3,0c1.3,0.4,1.8,1.4,1.9,2.6c0,0.4,0,0.8,0,1.2c0,29.5,0,58.9,0,88.4
			c0,0.6,0,1.3-0.2,1.9c-0.4,1-1,1.7-2.2,1.7c-5.1,0-10.2,0-15.2,0c-1.5,0-2.5-1-2.5-2.5c0-0.7,0-1.4,0-2c0-29.4,0-58.8,0-88.2
			C634,97.4,634.4,96.9,636,96.2z"/>
		<path class="st0" d="M335.7,125.4c1-0.7,1.9-1.4,2.8-1.9c4.3-2.6,8.9-4,13.9-4c1.7,0,2.7,0.9,2.7,2.6c0,3.8,0,7.6,0,11.4
			c0,1.9-0.7,2.6-2.6,2.6c-5.5,0-10.7,1.5-15.6,4c-0.7,0.4-0.8,0.8-0.8,1.5c0,15.6,0,31.3,0,46.9c0,2.7-0.8,3.5-3.4,3.5
			c-4.6,0-9.1,0-13.7,0c-2.1,0-3.1-0.9-3.1-3c0-21.9,0-43.7,0-65.6c0-2.1,0.9-2.9,2.9-2.9c4.6,0,9.2,0,13.8,0c2.3,0,3.1,0.8,3.1,3.1
			C335.7,124.1,335.7,124.7,335.7,125.4z"/>
		<path class="st0" d="M599.5,231.4c-0.3-0.7-1.1-0.7-1.8-0.7c-4.4,0-8.8,0-13.2,0c-2,0-4,0.3-6,0.9c-6.7,2.2-9.2,10.6-4.7,16
			c0.5,0.6,0.4,0.8-0.1,1.2c-2.4,2-2.3,6.1,0.2,7.7c1,0.6,1,0.9,0.2,1.7c-3.9,3.6-4.4,12.5,3.2,15c1.9,0.7,3.9,1,6,1.1
			c0.5,0,1.1,0,1.7,0h0l2.4,0c2.5-0.2,5-0.5,7.3-1.7c3.1-1.5,4.4-4.1,4.4-7.5c0-3.2-1.7-5.2-4.4-6.5c-0.4-0.2-0.7-0.3-1.1-0.5
			c-4.2-1.7-8.7-2.4-13.1-3.6c-1-0.3-2.1-0.4-3.1-0.9c-0.9-0.5-1.1-1.4-0.7-2.3c0.4-0.8,0.9-1.4,2.1-1c4.1,1.3,8.4,1.2,12.5,0.2
			c3.1-0.7,5.7-2.4,6.6-5.7c0.9-3.4,1-6.9-1.3-9.9c0.7-0.4,1.4-0.3,2.1-0.5c0.3-0.1,0.7-0.1,0.8-0.4
			C599.8,233.1,599.8,232.2,599.5,231.4z M576.6,263.1c0.1-0.8,0.4-1.5,0.8-2.2c1.3-2.1,1.8-2.3,4.1-1.7c2.7,0.7,5.5,1.2,8.2,2.1
			c0.5,0.1,0.9,0.3,1.3,0.5c2.1,0.9,2.7,1.8,2.7,3.8c-0.1,2.2-1,3.5-2.9,4.2c-1.8,0.6-3.7,0.8-5.5,0.7c-1.3,0-2.5,0-3.6-0.2
			C576.7,269.4,576.2,266.8,576.6,263.1z M593.2,242.4c-0.3,2.7-1.6,4-4.2,4.6c-0.7,0.2-1.3,0.3-2,0.4c-0.6,0.1-1.3,0-1.9,0
			c-1.7,0.1-3.3-0.1-4.8-0.7c-1.8-0.7-3-2-3.3-4c-0.8-4.8,1.2-7.3,6.2-7.9c1.8-0.2,3.5-0.2,5.2,0.2
			C592.5,235.9,593.6,238.4,593.2,242.4z"/>
		<path class="st0" d="M218.8,131.9c0,3.7,0,7.4,0,11c0,0.8-0.1,1.1-1,1.1c-7.4,0-14.9,0-22.3,0c-0.9,0-1.2-0.3-1.2-1.2
			c0-7.4,0-14.9,0-22.3c0-0.8,0.2-1.1,1-1.1c7.5,0,14.9,0,22.4,0c0.8,0,1,0.2,1,1C218.8,124.3,218.8,128.1,218.8,131.9z"/>
		<path class="st0" d="M218.8,180.8c0,3.6,0,7.3,0,10.9c0,0.9-0.1,1.2-1.2,1.2c-7.4,0-14.7,0-22.1,0c-1,0-1.3-0.3-1.3-1.3
			c0-7.3,0-14.6,0-21.9c0-1,0.3-1.3,1.3-1.3c7.4,0,14.7,0,22.1,0c1,0,1.2,0.4,1.1,1.2C218.8,173.4,218.8,177.1,218.8,180.8z"/>
		<path class="st0" d="M505.1,241.6c0-6.7,0-13.4,0-20.1c0-1.8,0.3-2,2.1-2.1c3.3,0,3.2-0.1,3.2,3.2c0,2.8,0,5.5,0,8.3
			c0,1,0.1,1.3,1.2,0.9c2.8-1.1,5.8-1.5,8.8-1.4c5.6,0.2,9.2,3.6,10,9.2c0.3,2.6,0.2,5.1,0.2,7.7c0,5,0,9.9,0,14.9
			c0,1.5-0.4,1.9-1.9,1.9c-3.4,0-3.4,0-3.4-3.3c0-6.2,0-12.3,0-18.5c0-1.4-0.2-2.8-0.8-4.1c-0.8-1.8-2.3-2.9-4.2-3.1
			c-3.1-0.3-6.2,0.2-9.2,1.3c-0.8,0.3-0.7,0.8-0.7,1.4c0,8,0,16,0,24c0,2-0.3,2.3-2.2,2.3c-3,0-3,0-3-3.1
			C505.1,254.5,505.1,248,505.1,241.6z"/>
		<path class="st0" d="M700.8,232.1c2.7-1,5.3-1.6,8.1-1.7c1.6-0.1,3.3,0,4.9,0.4c3.9,1.2,5.9,4,6.7,7.8c0.3,1.2,0.3,2.4,0.3,3.6
			c0,6.6,0,13.3,0,19.9c0,1.6-0.3,1.9-1.9,1.9c-3.9,0.1-3.3-0.3-3.3-3.2c0-5.8,0-11.7,0-17.5c0-1.6-0.1-3.2-0.7-4.7
			c-0.8-2.3-2.6-3.5-5-3.6c-2.8-0.1-5.5,0.3-8.1,1.2c-0.8,0.3-1.1,0.6-1.1,1.5c0,8,0,16.1,0,24.1c0,1.9-0.4,2.2-2.2,2.2
			c-3,0-3,0-3-3c0-13.2,0-26.5,0-39.7c0-1.8,0.2-1.9,1.9-1.9c2.7,0,3.4-0.8,3.4,3.3C700.7,225.8,700.8,228.9,700.8,232.1z"/>
		<path class="st0" d="M631.7,241.5c-0.5-3.6-1.9-6.9-5-9c-2.7-1.8-5.7-2.2-8.8-2.2c-6.7,0.2-11.2,3.9-12.3,10.4
			c-0.7,4-0.5,8.1-0.2,12.1c0.6,7,5.3,11.2,12.3,11.4c3.6,0.1,7.2-0.1,10.7-0.7c2.5-0.4,2.5-0.4,2.5-2.9c0-1.5-0.1-1.6-1.6-1.5
			c-3.8,0.4-7.6,0.6-11.3,0.5c-3.2-0.1-5.5-1.6-6.6-4.4c-0.7-1.7-0.8-3.5-0.9-5.3c0-0.8,0.3-1.1,1.1-1.1c3.1,0,6.2,0,9.4,0h9.1
			c1.6,0,1.9-0.3,2-2C632,245.1,631.9,243.3,631.7,241.5z M623.8,245h-5.4c-2.3,0-4.6,0-6.9,0c-0.8,0-1.1-0.2-1-1
			c0.1-1.8,0.3-3.6,1.1-5.2c1.2-2.6,3.3-3.8,6.1-3.9c1,0,2.1-0.1,3.1,0.1c3.5,0.6,5.5,3.2,5.7,7.2C626.6,245,626.6,245,623.8,245z"
			/>
		<path class="st0" d="M788.4,247.3c0-1.8,0-3.6-0.2-5.4c-0.8-6.9-5.2-11.1-12.1-11.6c-7.8-0.5-13,3.4-14.2,10.9
			c-0.7,4-0.5,8.1,0,12.1c0.3,2.5,1.3,4.9,3,6.9c2.5,2.9,5.9,3.9,9.6,4.1c6.4,0.3,11.3-2.9,13.1-8.7
			C788.4,252.9,788.5,250.1,788.4,247.3z M782.4,254.5c-1.2,3.6-3.6,5.2-7.9,5.2c-3.5,0-6-1.9-7.1-5.3c-0.4-1.3-0.7-2.5-0.6-3.9
			c0.1-3.3-0.4-6.6,0.5-9.8c0.8-3,2.6-5.2,5.8-5.7c3.1-0.5,6.1-0.2,8.2,2.6c1.3,1.8,1.8,3.9,1.9,6.1c0.1,1.2,0,2.3,0,3.5
			C783.1,249.7,783.2,252.1,782.4,254.5z"/>
		<path class="st0" d="M564.8,247.3c0-1.8,0-3.6-0.2-5.4c-0.8-6.9-5.2-11.1-12.1-11.6c-7.4-0.5-12.7,3.1-14.1,9.8
			c-1,4.7-0.9,9.5,0,14.3c0.8,3.9,2.9,7,6.6,8.7c2.7,1.2,5.6,1.4,8.4,1.1c4.8-0.6,8.3-3,10.1-7.7
			C564.8,253.6,564.9,250.5,564.8,247.3z M559,253.6c-1,4.5-3.8,6.3-8.7,6.1c-3.6-0.2-6.2-2.8-6.9-6.9c-0.3-1.8-0.2-3.7-0.2-5.3
			c0-2.1-0.1-4.1,0.3-6c0.9-4,3.5-6.4,7-6.5c5.1-0.1,7.7,1.6,8.6,6.3C559.9,245.3,559.9,249.5,559,253.6z"/>
		<path class="st0" d="M755.1,247.3c0-1.1,0-2.2,0-3.2c-0.1-8.2-4.7-13.3-12.5-13.7c-7.4-0.4-12.4,3.2-13.8,10.2
			c-0.8,4.1-0.6,8.3-0.2,12.4c0.2,2.5,1.1,4.7,2.6,6.7c2.5,3.3,6,4.5,10,4.7c6.6,0.3,11.5-3.1,13.2-9.1
			C755.2,252.6,755.1,249.9,755.1,247.3z M749.5,253.4c-0.8,3.8-3.5,6.1-7,6.2c-4.7,0.1-7.4-1.6-8.4-5.8c-1-4.3-1-8.8,0-13.2
			c1-4.3,3.6-6,8.6-5.8c3.4,0.1,6,2.5,6.8,6.3c0.4,2,0.5,4.1,0.4,6.2C750,249.4,749.9,251.4,749.5,253.4z"/>
		<path class="st0" d="M650.2,230.3c2.6,0,5.3,0.3,7.9,0.6c0.6,0.1,1.5,0.1,1.7,0.9c0.2,1,0.3,2.1-0.1,3.1c-0.2,0.5-0.8,0.4-1.3,0.3
			c-3.3-0.2-6.7-0.6-10-0.4c-0.7,0-1.4,0.1-2.1,0.2c-2.5,0.6-3.4,3.5-1.7,5.4c0.9,1.1,2.2,1.7,3.3,2.5c3,1.9,6.1,3.5,8.9,5.5
			c4.5,3.3,4.7,9.1,2,12.5c-1.7,2.2-4.3,3-7,3.2c-4,0.3-8,0.1-11.9-0.7c-1.3-0.3-2.1-2.9-1.2-3.9c0.3-0.4,0.8-0.4,1.3-0.3
			c3.3,0.4,6.7,0.7,10,0.7c0.9,0,1.8-0.1,2.7-0.4c2.7-1,3.5-4.3,1.5-6.3c-1-1.1-2.2-1.8-3.5-2.5c-3-1.9-6.2-3.4-9-5.7
			c-3.3-2.8-4.1-6.3-2.7-10c1-2.7,3.3-3.7,5.9-4.3C646.6,230.3,648.4,230.3,650.2,230.3z"/>
		<path class="st0" d="M672,247.3c0,2.5-0.1,5,0.7,7.4c1.1,3.3,3.3,5,6.9,5c2.4,0,4.9-0.1,7.3-0.3c1.1-0.1,1.5,0.2,1.5,1.4
			c0,2.7,0,2.8-2.6,3.1c-3,0.4-6,0.7-8.9,0.2c-5-0.9-8.1-4.1-9.3-8.9c-1.3-5.2-1.3-10.5,0-15.7c1.3-5.8,5.6-9.1,11.5-9.2
			c2.7-0.1,5.3,0.1,8,0.6c0.9,0.1,1.4,0.6,1.3,1.6c-0.1,2.9,0.6,3-3,2.6c-2.4-0.2-4.7-0.3-7.1-0.1c-2.6,0.2-4.4,1.8-5.3,4.2
			C671.9,241.8,672,244.6,672,247.3z"/>
		<path class="st0" d="M801.7,241.6c0,6.8,0,13.6,0,20.4c0,1.7-0.2,1.9-1.9,2c-3.3,0-3.3,0-3.3-3.2c0-13.1,0-26.1,0-39.2
			c0-2,0.1-2.1,2.2-2.2c3.2,0,3-0.1,3,3.1C801.7,228.8,801.7,235.2,801.7,241.6z"/>
	</g>
</g>
</svg>
